<?xml version="1.0" standalone="no"?><svg xmlns="http://www.w3.org/2000/svg" viewBox="0 0 1440 320"><path fill="#0099ff" fill-opacity="1" d="M0,96L17.1,96C34.3,96,69,96,103,117.3C137.1,139,171,181,206,181.3C240,181,274,139,309,144C342.9,149,377,203,411,224C445.7,245,480,235,514,202.7C548.6,171,583,117,617,80C651.4,43,686,21,720,48C754.3,75,789,149,823,197.3C857.1,245,891,267,926,256C960,245,994,203,1029,192C1062.9,181,1097,203,1131,208C1165.7,213,1200,203,1234,181.3C1268.6,160,1303,128,1337,112C1371.4,96,1406,96,1423,96L1440,96L1440,320L1422.9,320C1405.7,320,1371,320,1337,320C1302.9,320,1269,320,1234,320C1200,320,1166,320,1131,320C1097.1,320,1063,320,1029,320C994.3,320,960,320,926,320C891.4,320,857,320,823,320C788.6,320,754,320,720,320C685.7,320,651,320,617,320C582.9,320,549,320,514,320C480,320,446,320,411,320C377.1,320,343,320,309,320C274.3,320,240,320,206,320C171.4,320,137,320,103,320C68.6,320,34,320,17,320L0,320Z"></path></svg>